<svg width="12" height="13" viewBox="0 0 12 13" fill="none" xmlns="http://www.w3.org/2000/svg">
<path fill-rule="evenodd" clip-rule="evenodd" d="M4 4.64234V10.4999C4 11.0522 3.55229 11.4999 3 11.4999H2C1.44772 11.4999 1 11.0522 1 10.4999V2.49994C1 1.94766 1.44771 1.49994 2 1.49994H3C3.37423 1.49994 3.70045 1.70551 3.87189 2.00988C3.99413 1.89325 4.14762 1.80605 4.32349 1.76292L5.29471 1.52474C5.8311 1.3932 6.37257 1.72139 6.50411 2.25778L8 8.35756V2.49994C8 1.94766 8.44771 1.49994 9 1.49994H10C10.5523 1.49994 11 1.94766 11 2.49994V10.4999C11 11.0522 10.5523 11.4999 10 11.4999H9C8.62576 11.4999 8.29954 11.2944 8.1281 10.99C8.00586 11.1066 7.85237 11.1938 7.6765 11.237L6.70528 11.4751C6.16889 11.6067 5.62742 11.2785 5.49588 10.7421L4 4.64234ZM4.56167 2.73414L5.53289 2.49596L7.43832 10.2657L6.4671 10.5039L4.56167 2.73414ZM3 2.49994L2 2.49994V10.4999H3V2.49994ZM10 2.49994L9 2.49994V10.4999H10V2.49994Z" fill="black" fill-opacity="0.8"/>
</svg>
